<?xml version="1.0" encoding="UTF-8" standalone="no"?>
<svg
   xmlns:dc="http://purl.org/dc/elements/1.1/"
   xmlns:cc="http://creativecommons.org/ns#"
   xmlns:rdf="http://www.w3.org/1999/02/22-rdf-syntax-ns#"
   xmlns:svg="http://www.w3.org/2000/svg"
   xmlns="http://www.w3.org/2000/svg"
   xmlns:xlink="http://www.w3.org/1999/xlink"
   xmlns:sodipodi="http://sodipodi.sourceforge.net/DTD/sodipodi-0.dtd"
   xmlns:inkscape="http://www.inkscape.org/namespaces/inkscape"
   viewBox="0 0 1440 320"
   version="1.1"
   id="svg4"
   sodipodi:docname="wave 2.svg"
   inkscape:version="1.0.1 (3bc2e813f5, 2020-09-07)">
  <metadata
     id="metadata10">
    <rdf:RDF>
      <cc:Work
         rdf:about="">
        <dc:format>image/svg+xml</dc:format>
        <dc:type
           rdf:resource="http://purl.org/dc/dcmitype/StillImage" />
        <dc:title></dc:title>
      </cc:Work>
    </rdf:RDF>
  </metadata>
  <defs
     id="defs8">
    <linearGradient
       inkscape:collect="always"
       id="linearGradient847">
      <stop
         style="stop-color:#7fc5a3;stop-opacity:1;"
         offset="0"
         id="stop843" />
      <stop
         style="stop-color:#7fc5a3;stop-opacity:0.96787149"
         offset="1"
         id="stop845" />
    </linearGradient>
    <linearGradient
       inkscape:collect="always"
       xlink:href="#linearGradient847"
       id="linearGradient849"
       x1="1142.6221"
       y1="170.28278"
       x2="1132.7506"
       y2="261.59384"
       gradientUnits="userSpaceOnUse"
       gradientTransform="scale(1.001089,1)" />
  </defs>
  <sodipodi:namedview
     pagecolor="#ffffff"
     bordercolor="#666666"
     borderopacity="1"
     objecttolerance="10"
     gridtolerance="10"
     guidetolerance="10"
     inkscape:pageopacity="0"
     inkscape:pageshadow="2"
     inkscape:window-width="1366"
     inkscape:window-height="705"
     id="namedview6"
     showgrid="false"
     inkscape:zoom="0.40520833"
     inkscape:cx="558.29038"
     inkscape:cy="474.84313"
     inkscape:window-x="-8"
     inkscape:window-y="-8"
     inkscape:window-maximized="1"
     inkscape:current-layer="svg4" />
  <path
     fill="#0099ff"
     fill-opacity="1"
     d="M 0,224 30.03267,192 C 60.065338,160 120.13068,96 180.19602,85.3 240.26135,75 300.3267,117 360.39203,154.7 420.45737,192 480.52271,224 540.58805,245.3 600.65338,267 660.71873,277 720.78406,240 780.8494,203 840.91474,117 900.98008,74.7 961.04541,32 1021.1108,32 1081.1761,37.3 c 60.0653,5.7 120.1307,15.7 180.196,37.4 60.0653,21.3 120.1307,53.3 150.1633,69.3 l 30.0327,16 v 160 h -30.0327 c -30.0326,0 -90.098,0 -150.1633,0 -60.0653,0 -120.1307,0 -180.196,0 -60.0653,0 -120.13069,0 -180.19602,0 -60.06534,0 -120.13068,0 -180.19602,0 -60.06533,0 -120.13068,0 -180.19601,0 -60.06534,0 -120.13068,0 -180.19602,0 -60.06533,0 -120.13068,0 -180.19601,0 -60.06534,0 -120.130682,0 -150.16335,0 H 0 Z"
     id="path2"
     style="fill:url(#linearGradient849);fill-opacity:1;stroke-width:1.00055" />
</svg>
